<?xml version="1.0" encoding="utf-8"?>
<!-- Generator: Adobe Illustrator 23.1.1, SVG Export Plug-In . SVG Version: 6.00 Build 0)  -->
<svg version="1.1" id="Layer_1" xmlns="http://www.w3.org/2000/svg" xmlns:xlink="http://www.w3.org/1999/xlink" x="0px" y="0px"
	 viewBox="0 0 1152 1152" style="enable-background:new 0 0 1152 1152;" xml:space="preserve">
<style type="text/css">
	.st0{fill:#4BC8EF;}
	.st1{fill:#96D8EC;}
	.st2{fill:#74CFEB;}
	.st3{fill:#2F76BC;}
	.st4{fill:#1D4B7A;}
	.st5{fill:#509ED7;}
	.st6{fill:url(#SVGID_1_);}
	.st7{fill:url(#SVGID_2_);}
	.st8{fill:url(#SVGID_3_);}
	.st9{fill:url(#SVGID_4_);}
	.st10{fill:url(#SVGID_5_);}
	.st11{fill:url(#SVGID_6_);}
	.st12{fill:url(#SVGID_7_);}
	.st13{fill:url(#SVGID_8_);}
	.st14{fill:url(#SVGID_9_);}
</style>
<title>AzureARC_outlines</title>
<path class="st0" d="M1008.8,852.9l66.9-42.5V359.4l-66.8,40.2L1008.8,852.9z"/>
<path class="st1" d="M913.9,340.7v454.2l94.9,58V399.5L913.9,340.7z"/>
<path class="st2" d="M1008.8,399.5l66.8-40.2l-96.3-60.3l-65.5,41.6L1008.8,399.5z"/>
<path class="st3" d="M143.2,399.5l-66.9-40.2v451.1l66.9,42.5L143.2,399.5z"/>
<path class="st4" d="M143.2,399.5v453.4l94.9-58V340.7L143.2,399.5z"/>
<path class="st5" d="M238.1,340.7l-65.5-41.6l-96.2,60.3l66.9,40.2L238.1,340.7z"/>
<linearGradient id="SVGID_1_" gradientUnits="userSpaceOnUse" x1="264.0106" y1="386.7932" x2="1038.4513" y2="386.7932" gradientTransform="matrix(1 0 0 -1 -75.24 864.42)">
	<stop  offset="0.25" style="stop-color:#0560A5"/>
	<stop  offset="0.8" style="stop-color:#72C8E6"/>
</linearGradient>
<path class="st6" d="M577.8,544.1c-65.6,0-126.8-6.7-181.9-19.8c-44.1-10.5-84.5-25.2-119.9-43.6c-60.6-31.5-85.5-62.6-86.5-63.9
	c-1.2-1.5-0.9-3.7,0.6-4.9c1.5-1.2,3.7-0.9,4.9,0.6l0,0c0.2,0.3,25.3,31.5,84.7,62.2c34.9,18.1,74.7,32.5,118.2,42.8
	c54.5,12.9,115,19.5,179.9,19.5c65.1,0,125.5-6.6,179.7-19.6c43.3-10.4,82.7-24.8,117-43c58.3-30.8,82.1-61.6,82.4-62
	c1.2-1.5,3.4-1.8,4.9-0.7c1.5,1.2,1.8,3.4,0.7,4.9c-1,1.3-25,32.5-84.7,63.9c-34.9,18.5-74.8,33.1-118.6,43.6
	C704.5,537.5,643.5,544.1,577.8,544.1z"/>
<linearGradient id="SVGID_2_" gradientUnits="userSpaceOnUse" x1="264.0425" y1="353.7362" x2="1038.4431" y2="353.7362" gradientTransform="matrix(1 0 0 -1 -75.24 864.42)">
	<stop  offset="0.25" style="stop-color:#0560A5"/>
	<stop  offset="0.8" style="stop-color:#72C8E6"/>
</linearGradient>
<path class="st7" d="M577.8,558.1c-82,0-200.8-7.7-301.4-44.2c-60.5-21.9-85.5-43.7-86.5-44.6c-1.4-1.3-1.5-3.5-0.2-4.9
	c1.3-1.4,3.4-1.5,4.9-0.3l0,0c0.2,0.2,25.3,22,84.8,43.5c99.6,36,217.3,43.5,298.5,43.5c81.4,0,199-7.6,297.2-43.7
	c58.3-21.5,82.1-43,82.4-43.2c1.4-1.3,3.7-1.2,4.9,0.3c1.3,1.4,1.2,3.6-0.2,4.9c-1,0.9-25,22.7-84.7,44.6
	c-34.8,12.8-74.7,23-118.5,30.4C704.3,553.5,643.4,558.1,577.8,558.1z"/>
<linearGradient id="SVGID_3_" gradientUnits="userSpaceOnUse" x1="263.9973" y1="321.3067" x2="1038.5399" y2="321.3067" gradientTransform="matrix(1 0 0 -1 -75.24 864.42)">
	<stop  offset="0.25" style="stop-color:#0560A5"/>
	<stop  offset="0.8" style="stop-color:#72C8E6"/>
</linearGradient>
<path class="st8" d="M577.8,572.1c-81.9,0-200.5-4.4-301-25.5c-60.4-12.7-85.2-25.2-86.2-25.8c-1.7-0.9-2.4-3-1.5-4.7s3-2.4,4.7-1.5
	l0,0c0.2,0.1,25.4,12.8,85,25.3c99.8,20.9,217.6,25.3,299,25.3s198.8-4.4,297-25.3c58.7-12.5,83-25.1,83.2-25.3
	c1.7-1,3.8-0.4,4.8,1.3s0.4,3.8-1.3,4.8c-0.1,0-0.1,0.1-0.2,0.1c-1,0.5-25,13.1-84.4,25.8C778.1,567.7,659.7,572.1,577.8,572.1z"/>
<linearGradient id="SVGID_4_" gradientUnits="userSpaceOnUse" x1="264.0031" y1="294.2635" x2="1038.3433" y2="294.2635" gradientTransform="matrix(1 0 0 -1 -75.24 864.42)">
	<stop  offset="0.25" style="stop-color:#0560A5"/>
	<stop  offset="0.8" style="stop-color:#72C8E6"/>
</linearGradient>
<path class="st9" d="M577.8,586.1c-283.6,0-385.4-24.7-386.4-25c-1.9-0.5-3-2.4-2.5-4.2c0.5-1.9,2.4-3,4.2-2.5l0,0
	c1,0.2,102.2,24.8,384.7,24.8s380-24.5,381-24.8c1.9-0.4,3.8,0.8,4.2,2.7c0.4,1.8-0.7,3.6-2.4,4.1
	C959.7,561.3,861.5,586.1,577.8,586.1z"/>
<linearGradient id="SVGID_5_" gradientUnits="userSpaceOnUse" x1="264" y1="267.815" x2="1036.36" y2="267.815" gradientTransform="matrix(1 0 0 -1 -75.24 864.42)">
	<stop  offset="0.25" style="stop-color:#0560A5"/>
	<stop  offset="0.8" style="stop-color:#72C8E6"/>
</linearGradient>
<path class="st10" d="M957.6,600.1H192.3c-1.9,0-3.5-1.6-3.5-3.5s1.6-3.5,3.5-3.5l0,0h765.4c1.9,0,3.5,1.6,3.5,3.5
	S959.6,600.1,957.6,600.1z"/>
<linearGradient id="SVGID_6_" gradientUnits="userSpaceOnUse" x1="264.0594" y1="891.735" x2="1038.4774" y2="891.735" gradientTransform="matrix(1 0 0 1 -75.24 -176.19)">
	<stop  offset="0.25" style="stop-color:#0560A5"/>
	<stop  offset="0.8" style="stop-color:#72C8E6"/>
</linearGradient>
<path class="st11" d="M959.7,782c-1.1,0-2.1-0.5-2.8-1.4c-0.2-0.3-24.3-31.5-82.8-62.2c-34.4-18.1-73.7-32.5-116.9-42.8
	c-54.1-12.9-114.4-19.5-179.3-19.5s-125.5,6.6-179.9,19.5c-43.5,10.3-83.3,24.7-118.2,42.8c-59.4,30.8-84.4,61.9-84.6,62.2
	c-1.2,1.5-3.4,1.8-4.9,0.6c-1.5-1.2-1.8-3.4-0.6-4.9c1-1.3,25.9-32.4,86.5-63.9c35.4-18.4,75.8-33.1,119.9-43.6
	c55.1-13.1,116.3-19.8,181.9-19.8s126.6,6.7,181.3,19.8c43.8,10.5,83.7,25.2,118.6,43.6c59.7,31.5,83.7,62.6,84.7,63.9
	c1.2,1.5,0.9,3.7-0.7,4.9C961.2,781.7,960.5,782,959.7,782z"/>
<linearGradient id="SVGID_7_" gradientUnits="userSpaceOnUse" x1="263.9174" y1="858.7538" x2="1038.4341" y2="858.7538" gradientTransform="matrix(1 0 0 1 -75.24 -176.19)">
	<stop  offset="0.25" style="stop-color:#0560A5"/>
	<stop  offset="0.8" style="stop-color:#72C8E6"/>
</linearGradient>
<path class="st12" d="M959.7,730c-0.9,0-1.7-0.3-2.4-0.9c-0.2-0.2-24.4-22-83-43.5c-98-36-215.4-43.5-296.6-43.5
	s-198.9,7.5-298.5,43.5c-59.5,21.5-84.6,43.3-84.8,43.5c-1.4,1.3-3.6,1.2-4.9-0.2c-1.3-1.4-1.2-3.6,0.2-4.9c0,0,0.1-0.1,0.1-0.1
	c1-0.9,26-22.7,86.5-44.6c55.5-20.1,152.9-44.2,301.4-44.2c65.5,0,126.5,4.6,181.1,13.8c43.8,7.3,83.6,17.5,118.5,30.4
	c59.6,22,83.7,43.7,84.7,44.7c1.4,1.3,1.5,3.5,0.2,4.9C961.6,729.6,960.7,730,959.7,730L959.7,730z"/>
<linearGradient id="SVGID_8_" gradientUnits="userSpaceOnUse" x1="263.9859" y1="826.2869" x2="1038.6204" y2="826.2869" gradientTransform="matrix(1 0 0 1 -75.24 -176.19)">
	<stop  offset="0.25" style="stop-color:#0560A5"/>
	<stop  offset="0.8" style="stop-color:#72C8E6"/>
</linearGradient>
<path class="st13" d="M192.3,679c-1.9,0-3.5-1.5-3.5-3.5c0-1.3,0.7-2.5,1.9-3.1c1-0.5,25.9-13.1,86.2-25.8
	c100.4-21.1,219.1-25.5,301-25.5s200.2,4.4,299.1,25.5c59.5,12.7,83.4,25.3,84.4,25.8c1.7,0.9,2.4,3,1.6,4.7c-0.9,1.7-3,2.4-4.7,1.6
	c-0.1,0-0.1-0.1-0.2-0.1c-0.2-0.1-24.5-12.8-83.2-25.3c-98.2-20.9-215.8-25.3-297-25.3c-81.5,0-199.6,4.4-299.5,25.4
	c-59.4,12.5-84.2,25-84.5,25.2C193.4,678.9,192.9,679.1,192.3,679z"/>
<linearGradient id="SVGID_9_" gradientUnits="userSpaceOnUse" x1="264.0203" y1="799.23" x2="1038.3535" y2="799.23" gradientTransform="matrix(1 0 0 1 -75.24 -176.19)">
	<stop  offset="0.25" style="stop-color:#0560A5"/>
	<stop  offset="0.8" style="stop-color:#72C8E6"/>
</linearGradient>
<path class="st14" d="M192.3,639c-1.9,0-3.5-1.6-3.5-3.5c0-1.6,1.1-3,2.6-3.4c1-0.2,102.8-25,386.4-25s381.8,24.8,382.8,25
	c1.9,0.6,2.9,2.5,2.3,4.4c-0.5,1.8-2.3,2.8-4.1,2.4c-1-0.2-98.5-24.8-381-24.8s-383.7,24.5-384.7,24.8
	C192.8,638.9,192.6,639,192.3,639z"/>
</svg>
